<svg width="16" height="17" viewBox="0 0 16 17" fill="none" xmlns="http://www.w3.org/2000/svg">
<g clip-path="url(#clip0_2011_282)">
<path d="M8.00001 5.3C9.32549 5.3 10.4 4.22548 10.4 2.9C10.4 1.57452 9.32549 0.5 8.00001 0.5C6.67452 0.5 5.60001 1.57452 5.60001 2.9C5.60001 4.22548 6.67452 5.3 8.00001 5.3Z" fill="#858699"/>
<path d="M13.6 11.7C12.56 11.7 11.68 12.34 11.36 13.3H8.8V10.9H12.8C12.8 8.26001 10.64 6.10001 8 6.10001C5.36 6.10001 3.2 8.26001 3.2 10.9H7.2V13.3H4.64C4.32 12.34 3.44 11.7 2.4 11.7C1.12 11.7 0 12.74 0 14.1C0 15.46 1.12 16.5 2.4 16.5C3.44 16.5 4.32 15.86 4.64 14.9H11.36C11.68 15.86 12.56 16.5 13.6 16.5C14.96 16.5 16 15.46 16 14.1C16 12.74 14.96 11.7 13.6 11.7Z" fill="#858699"/>
</g>
<defs>
<clipPath id="clip0_2011_282">
<rect width="16" height="16" fill="white" transform="translate(0 0.5)"/>
</clipPath>
</defs>
</svg>
