<svg width="16" height="17" viewBox="0 0 16 17" fill="none" xmlns="http://www.w3.org/2000/svg">
<g clip-path="url(#clip0_2011_214)">
<path d="M4.51282 6.82479H7.07692V16.5H4.51282V6.82479Z" fill="#858699"/>
<path d="M8.9231 8.87607H11.4872V16.5H8.9231V8.87607Z" fill="#858699"/>
<path d="M13.3333 5.25214H15.8974V16.5H13.3333V5.25214Z" fill="#858699"/>
<path d="M0.10257 10.4829H2.66667V16.5H0.10257V10.4829Z" fill="#858699"/>
<path d="M14.5271 0.5C13.8101 0.5 13.2289 1.08082 13.2289 1.7973C13.2289 1.96499 13.2611 2.12509 13.3191 2.27221L10.8171 4.40359C10.6335 4.30421 10.4232 4.24776 10.1998 4.24776C9.82873 4.24776 9.4943 4.40356 9.25772 4.65296L7.09786 3.76838C7.09803 3.76 7.0985 3.75169 7.0985 3.74325C7.0985 3.02677 6.51727 2.44595 5.80028 2.44595C5.08329 2.44595 4.50209 3.02677 4.50209 3.74325C4.50209 3.81576 4.50832 3.88677 4.51977 3.95603L2.27584 5.28277C2.05488 5.10868 1.77618 5.00451 1.47297 5.00451C0.755974 5.00451 0.174744 5.58533 0.174744 6.30181C0.174744 7.01829 0.755974 7.59911 1.47297 7.59911C2.18996 7.59911 2.77115 7.01829 2.77115 6.30181C2.77115 6.2293 2.76493 6.15829 2.75348 6.08903L4.99741 4.76229C5.21837 4.93638 5.49707 5.04055 5.80032 5.04055C6.17136 5.04055 6.50579 4.88475 6.74237 4.63535L8.90223 5.51993C8.90206 5.52831 8.90158 5.53662 8.90158 5.54503C8.90158 6.2615 9.48281 6.84233 10.1998 6.84233C10.9168 6.84233 11.498 6.2615 11.498 5.54503C11.498 5.39491 11.4722 5.25087 11.4252 5.11675L13.9548 2.96181C14.1275 3.0467 14.3217 3.0946 14.5272 3.0946C15.2441 3.0946 15.8254 2.51378 15.8254 1.7973C15.8254 1.08082 15.2441 0.5 14.5271 0.5Z" fill="#858699"/>
</g>
<defs>
<clipPath id="clip0_2011_214">
<rect width="16" height="16" fill="white" transform="translate(0 0.5)"/>
</clipPath>
</defs>
</svg>
