<svg width="16" height="17" viewBox="0 0 16 17" fill="none" xmlns="http://www.w3.org/2000/svg">
<path d="M14.276 6.90463C14.2421 6.57929 14.1 6.27472 13.8726 6.03959C13.6452 5.80446 13.3455 5.65234 13.0215 5.60755C13.1242 5.16032 13.0832 4.6921 12.9044 4.26951C12.7256 3.84692 12.4181 3.49148 12.0256 3.25377C11.6331 3.01605 11.1757 2.90818 10.7183 2.94549C10.261 2.9828 9.82705 3.1634 9.47828 3.46159C8.86819 1.26455 5.79175 0.940008 4.76069 3.00339C1.17779 2.3098 -0.522923 7.28227 2.73755 8.91037C3.17129 9.12444 3.64848 9.23582 4.13217 9.23589H13.7902C14.0684 9.23342 14.3373 9.13587 14.5524 8.95943C14.7674 8.78299 14.9156 8.53828 14.9724 8.26597C15.0291 7.99366 14.991 7.71013 14.8643 7.46248C14.7376 7.21484 14.53 7.01799 14.276 6.90463ZM7.38742 7.96385C7.38609 8.02938 7.35913 8.09179 7.31231 8.13766C7.26549 8.18354 7.20256 8.20923 7.13701 8.20923C7.07146 8.20923 7.00853 8.18353 6.96171 8.13765C6.9149 8.09177 6.88794 8.02937 6.88661 7.96384V6.99979H5.86747V7.96385C5.86726 8.03012 5.84079 8.09361 5.79385 8.1404C5.74691 8.18719 5.68334 8.21346 5.61707 8.21346C5.55079 8.21346 5.48722 8.18719 5.44028 8.1404C5.39335 8.09361 5.36687 8.03012 5.36666 7.96385V6.14091C5.36703 5.91323 5.45764 5.69498 5.61863 5.53399C5.77962 5.373 5.99787 5.28239 6.22554 5.28202H6.52854C6.75622 5.28239 6.97447 5.373 7.13546 5.53399C7.29645 5.69498 7.38706 5.91323 7.38743 6.14091L7.38742 7.96385ZM8.90737 6.99979H8.2463V7.96385C8.2453 8.0296 8.21848 8.09233 8.17163 8.13847C8.12478 8.18462 8.06165 8.21048 7.99589 8.21048C7.93013 8.21048 7.86701 8.18461 7.82016 8.13846C7.77331 8.09231 7.74649 8.02959 7.74549 7.96384V5.53243C7.74569 5.46608 7.77213 5.4025 7.81905 5.35558C7.86597 5.30866 7.92955 5.28222 7.9959 5.28202H8.90737C9.13348 5.28458 9.34945 5.3762 9.50844 5.53699C9.66742 5.69778 9.75659 5.91478 9.75659 6.14091C9.75659 6.36703 9.66742 6.58403 9.50844 6.74482C9.34945 6.90561 9.13348 6.99723 8.90737 6.99979ZM10.6251 7.99139C10.6241 8.05714 10.5973 8.11987 10.5505 8.16601C10.5036 8.21216 10.4405 8.23802 10.3747 8.23802C10.309 8.23802 10.2458 8.21215 10.199 8.166C10.1521 8.11985 10.1253 8.05713 10.1243 7.99138V5.55997C10.1255 5.49434 10.1524 5.43181 10.1993 5.38582C10.2461 5.33984 10.3091 5.31407 10.3747 5.31408C10.4404 5.31408 10.5034 5.33985 10.5502 5.38583C10.597 5.43182 10.6239 5.49436 10.6251 5.55998V7.99139Z" fill="#858699"/>
<path d="M6.52854 5.78284H6.22554C6.17851 5.78283 6.13194 5.79208 6.0885 5.81007C6.04505 5.82807 6.00557 5.85444 5.97232 5.88769C5.93907 5.92095 5.91269 5.96042 5.8947 6.00387C5.87671 6.04732 5.86745 6.09389 5.86746 6.14091V6.499H6.8866V6.14092C6.88662 6.0939 6.87736 6.04733 6.85937 6.00388C6.84138 5.96043 6.81501 5.92095 6.78176 5.8877C6.7485 5.85445 6.70903 5.82807 6.66558 5.81008C6.62213 5.79208 6.57556 5.78283 6.52854 5.78284Z" fill="#858699"/>
<path d="M12.3429 12.0154C12.3603 11.8716 12.1242 11.7096 12.0449 11.6147C11.9203 11.4869 11.8359 11.3254 11.8022 11.1501C11.7684 10.9748 11.7868 10.7935 11.855 10.6286C11.9232 10.4637 12.0383 10.3223 12.186 10.2221C12.3337 10.1219 12.5075 10.0672 12.686 10.0647L13.004 10.0647C13.0433 10.0629 13.0817 10.0525 13.1165 10.0343C13.1514 10.016 13.1818 9.99039 13.2057 9.95912C13.2296 9.92785 13.2463 9.89173 13.2547 9.85331C13.2631 9.81488 13.263 9.77508 13.2544 9.7367H10.525C9.79134 12.2794 6.19917 12.2771 5.46684 9.73666C4.64916 9.72978 3.4928 9.82362 2.73747 9.45874C2.74888 9.67861 2.6587 10.0502 2.98784 10.0647L3.30586 10.0647C3.48447 10.0669 3.65853 10.1213 3.80649 10.2214C3.95446 10.3215 4.06983 10.4627 4.13832 10.6277C4.2068 10.7927 4.22541 10.9741 4.19182 11.1495C4.15824 11.325 4.07394 11.4867 3.94936 11.6147C3.87516 11.7066 3.62944 11.8709 3.64892 12.0154C3.6487 12.0819 3.6748 12.1458 3.72151 12.1932L4.8308 13.3024C4.87808 13.3494 4.94198 13.3757 5.00859 13.3757C5.0752 13.3757 5.1391 13.3494 5.18638 13.3024L5.41173 13.0771C5.53974 12.9525 5.70148 12.8682 5.87693 12.8346C6.05238 12.801 6.23384 12.8196 6.39882 12.8881C6.5638 12.9566 6.70507 13.072 6.80512 13.22C6.90518 13.3679 6.95962 13.542 6.96172 13.7207L6.96173 14.0386C6.96193 14.105 6.98837 14.1686 7.03529 14.2155C7.08221 14.2624 7.14579 14.2888 7.21214 14.289H8.77966C8.84602 14.2888 8.9096 14.2624 8.95651 14.2155C9.00343 14.1686 9.02987 14.105 9.03007 14.0386V13.7206C9.03165 13.5418 9.08579 13.3673 9.18576 13.219C9.28574 13.0707 9.42712 12.955 9.59232 12.8864C9.75752 12.8178 9.93925 12.7994 10.1149 12.8333C10.2905 12.8672 10.4523 12.952 10.5801 13.0771L10.8054 13.3025C10.8527 13.3494 10.9166 13.3757 10.9832 13.3757C11.0498 13.3757 11.1137 13.3494 11.161 13.3025L12.2703 12.1932C12.317 12.1458 12.3431 12.0819 12.3429 12.0154Z" fill="#858699"/>
<path d="M3.72902 12.9068L2.90268 13.7306C2.71748 13.6308 2.50254 13.6009 2.29714 13.6465C2.09174 13.692 1.90958 13.81 1.78396 13.9788C1.65833 14.1475 1.59762 14.3559 1.61292 14.5657C1.62821 14.7755 1.71849 14.9729 1.86727 15.1216C2.01604 15.2704 2.21337 15.3607 2.42321 15.376C2.63304 15.3912 2.84137 15.3305 3.01014 15.2049C3.17891 15.0793 3.29684 14.8971 3.34239 14.6917C3.38794 14.4863 3.35807 14.2714 3.25824 14.0862L4.08208 13.2599L3.72902 12.9068Z" fill="#858699"/>
<path d="M13.5048 13.6255C13.3596 13.6249 13.2166 13.6611 13.0891 13.7306L12.2628 12.9068L11.9097 13.2599L12.7335 14.0862C12.6425 14.2551 12.6095 14.4491 12.6394 14.6386C12.6694 14.8281 12.7606 15.0025 12.8993 15.1352C13.0379 15.2678 13.2162 15.3512 13.4068 15.3727C13.5974 15.3943 13.7898 15.3526 13.9545 15.2542C14.1192 15.1559 14.2471 15.0062 14.3185 14.8281C14.3899 14.6501 14.4009 14.4535 14.3499 14.2686C14.2988 14.0837 14.1885 13.9206 14.0358 13.8044C13.8832 13.6883 13.6966 13.6254 13.5048 13.6255Z" fill="#858699"/>
<path d="M8.90737 5.78284H8.24631V6.499H8.90737C9.00152 6.49776 9.0914 6.45948 9.15753 6.39246C9.22367 6.32545 9.26076 6.23508 9.26076 6.14092C9.26076 6.04676 9.22367 5.95639 9.15753 5.88937C9.0914 5.82235 9.00152 5.78408 8.90737 5.78284Z" fill="#858699"/>
</svg>
