<svg width="16" height="17" viewBox="0 0 16 17" fill="none" xmlns="http://www.w3.org/2000/svg">
<path d="M12.25 6.5C12.25 7.19036 11.9142 7.75 11.5 7.75C11.0858 7.75 10.75 7.19036 10.75 6.5C10.75 5.80964 11.0858 5.25 11.5 5.25C11.9142 5.25 12.25 5.80964 12.25 6.5Z" fill="#858699"/>
<path d="M3 11L3.82598 14.7169C3.92766 15.1745 4.33347 15.5 4.80217 15.5H5C5.55228 15.5 6 15.0523 6 14.5V11.5L3 11Z" fill="#858699"/>
<path fill-rule="evenodd" clip-rule="evenodd" d="M2.06887 4.47701L10.538 1.65395C10.8439 1.55198 11.1643 1.5 11.4867 1.5H11.4999C13.4329 1.5 14.9999 3.73858 14.9999 6.5C14.9999 9.26142 13.4329 11.5 11.4999 11.5H11.3292C11.1103 11.5 10.8921 11.476 10.6784 11.4286L2.0864 9.51922C2.02999 9.50669 1.97854 9.47776 1.93852 9.43607C0.631815 8.07486 0.642601 5.9139 1.9493 4.5527C1.98238 4.51824 2.02356 4.49211 2.06887 4.47701ZM11.5 10C12.6046 10 13.5 8.433 13.5 6.5C13.5 4.567 12.6046 3 11.5 3C10.3954 3 9.5 4.567 9.5 6.5C9.5 8.433 10.3954 10 11.5 10Z" fill="#858699"/>
</svg>
