<svg width="16" height="17" viewBox="0 0 16 17" fill="none" xmlns="http://www.w3.org/2000/svg">
<path d="M15.0219 6.34376C13.8785 6.16439 13.0744 5.10626 13.2022 3.9847C13.2195 3.83275 13.254 3.68326 13.305 3.53907C13.4375 3.15845 13.3016 2.71876 12.9744 2.44314C12.2829 1.84636 11.4989 1.36613 10.6531 1.02126C10.4687 0.943505 10.2636 0.929467 10.0702 0.981366C9.87688 1.03327 9.70636 1.14814 9.58564 1.30782C8.91626 2.20251 7.62658 2.35939 6.75564 1.66095C6.62756 1.55798 6.51292 1.43935 6.41439 1.30782C6.29366 1.14814 6.12315 1.03327 5.92981 0.981366C5.73647 0.929467 5.53135 0.943505 5.34689 1.02126C4.56676 1.3388 3.83882 1.77187 3.18751 2.30595C2.84376 2.5847 2.70126 3.04157 2.84064 3.43501C3.23033 4.46845 2.70408 5.68032 1.63501 6.12251C1.44454 6.20198 1.24363 6.25365 1.03845 6.27595C0.607826 6.32939 0.250639 6.64782 0.163451 7.05876C-0.0325219 7.92765 -0.0500636 8.82727 0.111889 9.70314C0.187514 10.1275 0.549389 10.4606 0.993139 10.5156C2.13689 10.6369 2.98751 11.6481 2.91439 12.7734C2.90025 12.9995 2.8474 13.2215 2.75814 13.4297C2.58908 13.8206 2.72033 14.2947 3.07064 14.5828C3.75747 15.1692 4.53375 15.6419 5.37001 15.9828C5.47385 16.0226 5.58356 16.045 5.6947 16.0491C5.84531 16.052 5.99423 16.0168 6.12759 15.9468C6.26096 15.8767 6.37445 15.7741 6.45751 15.6484C6.63554 15.3811 6.87581 15.1609 7.15768 15.0068C7.43956 14.8527 7.75462 14.7693 8.07581 14.7638C8.397 14.7583 8.71473 14.8308 9.00172 14.9752C9.2887 15.1195 9.53637 15.3314 9.72345 15.5925C9.84361 15.7633 10.0196 15.8868 10.2212 15.9417C10.4227 15.9966 10.637 15.9794 10.8272 15.8931C11.5914 15.5542 12.3023 15.106 12.9375 14.5625C13.2706 14.2813 13.4063 13.8309 13.2635 13.4453C12.8619 12.4163 13.375 11.1997 14.4375 10.7475C14.6171 10.6703 14.8063 10.6177 15 10.5913C15.4256 10.5259 15.771 10.2031 15.8497 9.7947C15.9421 9.36783 15.9924 8.93294 16 8.49626C15.9999 8.03541 15.9516 7.57582 15.856 7.12501C15.776 6.72532 15.4381 6.41001 15.0219 6.34376ZM10.6666 8.49626C10.6666 9.96001 9.46283 11.1616 8.00001 11.1628C6.5372 11.1641 5.3347 9.96001 5.33345 8.49626C5.3322 7.03251 6.5372 5.83064 8.00001 5.82939C9.46283 5.82814 10.6653 7.03126 10.6666 8.49626Z" fill="#858699"/>
</svg>
