<svg width="16" height="17" viewBox="0 0 16 17" fill="none" xmlns="http://www.w3.org/2000/svg">
<g clip-path="url(#clip0_2011_264)">
<path d="M7 12.375V3.91422L4.16231 6.75191C3.97478 6.93945 3.72042 7.04481 3.4552 7.04481C3.18999 7.04481 2.93563 6.93945 2.74809 6.75191C2.56056 6.56437 2.4552 6.31002 2.4552 6.0448C2.4552 5.77958 2.56056 5.52523 2.74809 5.33769L7.29291 0.792911C7.48044 0.605382 7.73479 0.500031 8 0.500031C8.26521 0.500031 8.51956 0.605382 8.70709 0.792911L13.2519 5.33769C13.3448 5.43055 13.4184 5.54079 13.4687 5.66212C13.5189 5.78344 13.5448 5.91348 13.5448 6.0448C13.5448 6.17612 13.5189 6.30616 13.4687 6.42749C13.4184 6.54881 13.3448 6.65905 13.2519 6.75191C13.159 6.84477 13.0488 6.91843 12.9275 6.96868C12.8062 7.01894 12.6761 7.04481 12.5448 7.04481C12.4135 7.04481 12.2834 7.01894 12.1621 6.96868C12.0408 6.91843 11.9305 6.84477 11.8377 6.75191L9 3.91419V12.375C9 12.6402 8.89464 12.8946 8.70711 13.0821C8.51957 13.2696 8.26522 13.375 8 13.375C7.73478 13.375 7.48043 13.2696 7.29289 13.0821C7.10536 12.8946 7 12.6402 7 12.375ZM15 8.09375C14.7348 8.09375 14.4804 8.19911 14.2929 8.38665C14.1054 8.57418 14 8.82854 14 9.09375V13.1563C13.9996 13.5125 13.8579 13.8541 13.606 14.106C13.3541 14.3579 13.0125 14.4996 12.6562 14.5H3.34375C2.98749 14.4996 2.64594 14.3579 2.39402 14.106C2.14211 13.8541 2.00041 13.5125 2 13.1563V9.09375C2 8.82854 1.89464 8.57418 1.70711 8.38665C1.51957 8.19911 1.26522 8.09375 1 8.09375C0.734784 8.09375 0.48043 8.19911 0.292893 8.38665C0.105357 8.57418 0 8.82854 0 9.09375L0 13.1563C0.00100081 14.0428 0.353609 14.8927 0.980467 15.5195C1.60733 16.1464 2.45724 16.499 3.34375 16.5H12.6562C13.5428 16.499 14.3927 16.1464 15.0195 15.5195C15.6464 14.8927 15.999 14.0428 16 13.1563V9.09375C16 8.82854 15.8946 8.57418 15.7071 8.38665C15.5196 8.19911 15.2652 8.09375 15 8.09375Z" fill="#858699"/>
</g>
<defs>
<clipPath id="clip0_2011_264">
<rect width="16" height="16" fill="white" transform="translate(0 0.5)"/>
</clipPath>
</defs>
</svg>
