<svg width="16" height="17" viewBox="0 0 16 17" fill="none" xmlns="http://www.w3.org/2000/svg">
<path fill-rule="evenodd" clip-rule="evenodd" d="M14.5408 12.0746C14.4636 11.6877 14.3111 11.3198 14.092 10.9917L14.5143 10.5694L13.673 9.72812L13.2507 10.1505C12.9226 9.93132 12.5547 9.77881 12.1678 9.70162V9.10475H10.9781V9.70162C10.5912 9.77881 10.2233 9.9313 9.89521 10.1504L9.47278 9.72812L8.63146 10.5694L9.05378 10.9917C8.83463 11.3197 8.68213 11.6877 8.60493 12.0746H8.00806V13.2644H8.60493C8.68213 13.6513 8.83464 14.0192 9.05378 14.3473L8.6315 14.7696L9.47278 15.6109L9.89509 15.1886C10.2232 15.4078 10.5912 15.5603 10.9781 15.6375V16.2344H12.1679V15.6375C12.5548 15.5603 12.9228 15.4078 13.2508 15.1887L13.6731 15.611L14.5144 14.7697L14.0921 14.3473C14.3112 14.0193 14.4637 13.6513 14.5409 13.2644H15.1378V12.0746H14.5408ZM11.5729 14.5232C11.2062 14.5233 10.8478 14.4145 10.543 14.2109C10.2381 14.0072 10.0005 13.7176 9.86021 13.3789C9.7199 13.0402 9.68318 12.6675 9.7547 12.3079C9.82623 11.9483 10.0028 11.618 10.262 11.3587C10.5213 11.0995 10.8516 10.9229 11.2112 10.8514C11.5708 10.7798 11.9435 10.8166 12.2822 10.9569C12.621 11.0972 12.9105 11.3348 13.1142 11.6396C13.3179 11.9445 13.4266 12.3029 13.4266 12.6695C13.4266 12.9129 13.3786 13.154 13.2855 13.3789C13.1923 13.6038 13.0558 13.8082 12.8837 13.9803C12.7115 14.1524 12.5072 14.289 12.2823 14.3821C12.0574 14.4753 11.8163 14.5232 11.5729 14.5232ZM11.5416 3.81716C11.5659 3.8031 11.586 3.78292 11.6 3.75865C11.6139 3.73437 11.6213 3.70685 11.6213 3.67883C11.6213 3.65081 11.6139 3.62329 11.6 3.59901C11.586 3.57473 11.5659 3.55456 11.5416 3.5405L9.75006 2.50612C9.7258 2.49201 9.69824 2.48455 9.67017 2.4845C9.6421 2.48445 9.61451 2.49182 9.59021 2.50586C9.5659 2.51989 9.54573 2.5401 9.53174 2.56444C9.51774 2.58877 9.51043 2.61637 9.51053 2.64444V4.71319C9.51043 4.74125 9.51775 4.76885 9.53175 4.79318C9.54574 4.81751 9.56591 4.83771 9.59022 4.85174C9.61453 4.86578 9.64211 4.87314 9.67017 4.87309C9.69824 4.87304 9.7258 4.86558 9.75006 4.85147L11.5416 3.81709V3.81716ZM0.862183 11.9784V6.80228H2.51443V11.9784H0.862183ZM0.862183 6.30228V5.70284C0.862364 5.60335 0.901961 5.50799 0.972304 5.43763C1.04265 5.36727 1.138 5.32764 1.2375 5.32744H2.13903C2.23853 5.32763 2.33391 5.36724 2.40427 5.4376C2.47463 5.50796 2.51424 5.60334 2.51443 5.70284V6.30228H0.862183ZM2.37156 12.4764L1.68831 13.6719L1.00496 12.4764H2.37156ZM6.64656 0.954531L3.683 3.91816C3.62772 3.97258 3.5827 4.03652 3.55009 4.10691H6.2535C6.40773 4.10661 6.55556 4.0452 6.66461 3.93614C6.77367 3.82707 6.83506 3.67923 6.83534 3.525V0.821469C6.76495 0.854077 6.70101 0.899098 6.64659 0.954375L6.64656 0.954531ZM13.2526 0.765625H7.33531V3.525C7.33494 3.8118 7.22085 4.08674 7.01806 4.28954C6.81527 4.49234 6.54032 4.60644 6.25353 4.60681H3.49415V13.7844C3.49448 13.9552 3.56248 14.1189 3.68326 14.2397C3.80404 14.3604 3.96776 14.4284 4.13856 14.4288H8.26521L8.42793 14.266C8.34576 14.1044 8.27623 13.9367 8.21996 13.7643H7.50803V12.6683H5.02265C4.95635 12.6683 4.89276 12.642 4.84587 12.5951C4.79899 12.5482 4.77265 12.4846 4.77265 12.4183C4.77265 12.352 4.79899 12.2885 4.84587 12.2416C4.89276 12.1947 4.95635 12.1683 5.02265 12.1683H7.50803V11.5746H8.21996C8.25121 11.479 8.28648 11.3849 8.32578 11.2922H5.02265C4.95635 11.2922 4.89276 11.2659 4.84587 11.219C4.79899 11.1721 4.77265 11.1086 4.77265 11.0422C4.77265 10.9759 4.79899 10.9124 4.84587 10.8655C4.89276 10.8186 4.95635 10.7922 5.02265 10.7922H8.14728L7.92437 10.5694L8.5775 9.91625H5.02265C4.95635 9.91625 4.89276 9.88991 4.84587 9.84303C4.79899 9.79614 4.77265 9.73255 4.77265 9.66625C4.77265 9.59995 4.79899 9.53636 4.84587 9.48947C4.89276 9.44259 4.95635 9.41625 5.02265 9.41625H9.07759L9.47278 9.02109L9.86793 9.41625H10.2104C10.2982 9.37946 10.3874 9.34627 10.478 9.31669V8.60459H12.6678V9.31659C12.8401 9.37288 13.0078 9.44241 13.1694 9.52456L13.673 9.021L13.897 9.245V1.41C13.8967 1.2392 13.8287 1.07549 13.7079 0.954721C13.5871 0.83395 13.4234 0.765955 13.2526 0.765625ZM5.02265 5.28784H6.971C7.0373 5.28784 7.10089 5.31418 7.14777 5.36107C7.19466 5.40795 7.221 5.47154 7.221 5.53784C7.221 5.60415 7.19466 5.66774 7.14777 5.71462C7.10089 5.7615 7.0373 5.78784 6.971 5.78784H5.02265C4.95635 5.78784 4.89276 5.7615 4.84587 5.71462C4.79899 5.66774 4.77265 5.60415 4.77265 5.53784C4.77265 5.47154 4.79899 5.40795 4.84587 5.36107C4.89276 5.31418 4.95635 5.28784 5.02265 5.28784ZM12.3613 8.54006H5.02265C4.95635 8.54006 4.89276 8.51372 4.84587 8.46684C4.79899 8.41996 4.77265 8.35637 4.77265 8.29006C4.77265 8.22376 4.79899 8.16017 4.84587 8.11329C4.89276 8.0664 4.95635 8.04006 5.02265 8.04006H12.3613C12.4276 8.04006 12.4912 8.0664 12.5381 8.11329C12.585 8.16017 12.6113 8.22376 12.6113 8.29006C12.6113 8.35637 12.585 8.41996 12.5381 8.46684C12.4912 8.51372 12.4276 8.54006 12.3613 8.54006ZM12.3613 7.16397H5.02265C4.95635 7.16397 4.89276 7.13763 4.84587 7.09075C4.79899 7.04386 4.77265 6.98027 4.77265 6.91397C4.77265 6.84766 4.79899 6.78408 4.84587 6.73719C4.89276 6.69031 4.95635 6.66397 5.02265 6.66397H12.3613C12.4276 6.66397 12.4912 6.69031 12.5381 6.73719C12.585 6.78408 12.6113 6.84766 12.6113 6.91397C12.6113 6.98027 12.585 7.04386 12.5381 7.09075C12.4912 7.13763 12.4276 7.16397 12.3613 7.16397ZM12.625 5.13806C12.6247 5.244 12.5825 5.34551 12.5076 5.42041C12.4327 5.49532 12.3311 5.53754 12.2252 5.53784H8.50715C8.40122 5.53754 8.29971 5.49532 8.2248 5.42041C8.14989 5.34551 8.10768 5.244 8.10737 5.13806V2.21962C8.10768 2.11369 8.14989 2.01218 8.2248 1.93727C8.29971 1.86237 8.40122 1.82015 8.50715 1.81984H12.2252C12.3311 1.82015 12.4327 1.86237 12.5076 1.93727C12.5825 2.01218 12.6247 2.11369 12.625 2.21962V5.13806Z" fill="#858699"/>
</svg>
