<svg width="14" height="15" viewBox="0 0 14 15" fill="none" xmlns="http://www.w3.org/2000/svg">
<path d="M2 5.29449V4C2 3.72385 1.77615 3.5 1.5 3.5H0.5C0.223846 3.5 0 3.72385 0 4V7.06781C0.441956 6.27045 1.14835 5.64056 2 5.29449Z" fill="#858699"/>
<path d="M3.5 5C3.84583 5 4.17972 5.04874 4.5 5.13165V2.5C4.5 2.22385 4.27615 2 4 2H3C2.72385 2 2.5 2.22385 2.5 2.5V5.13165C2.82028 5.04874 3.15417 5 3.5 5Z" fill="#858699"/>
<path d="M7 7.06781V1C7 0.723846 6.77615 0.5 6.5 0.5H5.5C5.22385 0.5 5 0.723846 5 1V5.29449C5.85165 5.64056 6.55804 6.27045 7 7.06781Z" fill="#858699"/>
<path d="M12 0.5V2.5H14L12 0.5Z" fill="#858699"/>
<path d="M12 3C11.7239 3 11.5 2.77615 11.5 2.5V0.5H8.5C8.22388 0.5 8 0.723846 8 1V8C8 8.27615 8.22388 8.5 8.5 8.5H13.5C13.7762 8.5 14 8.27615 14 8V3H12ZM12.75 7.5H9.25C9.11182 7.5 9 7.38818 9 7.25C9 7.11182 9.11182 7 9.25 7H12.75C12.8882 7 13 7.11182 13 7.25C13 7.38818 12.8882 7.5 12.75 7.5ZM12.75 6.5H9.25C9.11182 6.5 9 6.38818 9 6.25C9 6.11182 9.11182 6 9.25 6H12.75C12.8882 6 13 6.11182 13 6.25C13 6.38818 12.8882 6.5 12.75 6.5ZM12.75 5.5H9.25C9.11182 5.5 9 5.38818 9 5.25C9 5.11182 9.11182 5 9.25 5H12.75C12.8882 5 13 5.11182 13 5.25C13 5.38818 12.8882 5.5 12.75 5.5ZM12.75 4.5H9.25C9.11182 4.5 9 4.38818 9 4.25C9 4.11182 9.11182 4 9.25 4H12.75C12.8882 4 13 4.11182 13 4.25C13 4.38818 12.8882 4.5 12.75 4.5Z" fill="#858699"/>
<path d="M13.5 9H12.5C12.2239 9 12 9.22388 12 9.5C12 9.71503 12.1373 9.89459 12.3278 9.96521L11.5 10.793L10.8535 10.1465C10.6582 9.95117 10.3418 9.95117 10.1465 10.1465L8.60352 11.6895C8.60352 11.6895 9.21609 12.3029 9.30948 12.3976L10.5 11.207L11.1465 11.8535C11.3418 12.0488 11.6582 12.0488 11.8535 11.8535L13.0348 10.6722C13.1054 10.8627 13.285 11 13.5 11C13.7761 11 14 10.7761 14 10.5V9.5C14 9.22388 13.7761 9 13.5 9Z" fill="#858699"/>
<path d="M8.64648 12.4395L7.35352 11.1465C7.19492 10.9879 6.95947 10.9649 6.77087 11.0638L6.50021 10.7932C6.81537 10.2679 7 9.65585 7 9C7 7.07007 5.42993 5.5 3.5 5.5C1.57007 5.5 0 7.07007 0 9C0 10.9299 1.57007 12.5 3.5 12.5C4.15585 12.5 4.76794 12.3154 5.29318 12.0002L5.56384 12.2709C5.46487 12.4595 5.48788 12.6949 5.64648 12.8535L6.93945 14.1465C7.16748 14.3745 7.47046 14.5 7.79297 14.5C8.11548 14.5 8.41846 14.3745 8.64648 14.1465C8.87451 13.9185 9 13.6155 9 13.293C9 12.9705 8.87451 12.6675 8.64648 12.4395ZM3.5 11.5C2.11929 11.5 1 10.3807 1 9C1 7.61929 2.11929 6.5 3.5 6.5C4.88071 6.5 6 7.61929 6 9C6 10.3807 4.88071 11.5 3.5 11.5Z" fill="#858699"/>
<path d="M3.5 11C2.39722 11 1.5 10.1028 1.5 9C1.5 7.89722 2.39722 7 3.5 7C4.60278 7 5.5 7.89722 5.5 9C5.5 10.1028 4.60278 11 3.5 11Z" fill="#858699"/>
</svg>
