<svg width="16" height="17" viewBox="0 0 16 17" fill="none" xmlns="http://www.w3.org/2000/svg">
<g clip-path="url(#clip0_2011_204)">
<path d="M6.16663 0.5H1.16663C0.523315 0.5 0 1.02332 0 1.66663V4.66663C0 5.31006 0.523315 5.83337 1.16663 5.83337H6.16663C6.81006 5.83337 7.33337 5.31006 7.33337 4.66663V1.66663C7.33337 1.02332 6.81006 0.5 6.16663 0.5Z" fill="#575BC7"/>
<path d="M6.16663 7.16663H1.16663C0.523315 7.16663 0 7.68994 0 8.33337V15.3334C0 15.9767 0.523315 16.5 1.16663 16.5H6.16663C6.81006 16.5 7.33337 15.9767 7.33337 15.3334V8.33337C7.33337 7.68994 6.81006 7.16663 6.16663 7.16663Z" fill="#575BC7"/>
<path d="M14.8334 11.1666H9.83337C9.18994 11.1666 8.66663 11.6899 8.66663 12.3334V15.3334C8.66663 15.9767 9.18994 16.5 9.83337 16.5H14.8334C15.4767 16.5 16 15.9767 16 15.3334V12.3334C16 11.6899 15.4767 11.1666 14.8334 11.1666Z" fill="#575BC7"/>
<path d="M14.8334 0.5H9.83337C9.18994 0.5 8.66663 1.02332 8.66663 1.66663V8.66663C8.66663 9.31006 9.18994 9.83337 9.83337 9.83337H14.8334C15.4767 9.83337 16 9.31006 16 8.66663V1.66663C16 1.02332 15.4767 0.5 14.8334 0.5Z" fill="#575BC7"/>
</g>
<defs>
<clipPath id="clip0_2011_204">
<rect width="16" height="16" fill="white" transform="translate(0 0.5)"/>
</clipPath>
</defs>
</svg>
