<svg width="10" height="10" viewBox="0 0 10 10" fill="none" xmlns="http://www.w3.org/2000/svg">
<path d="M5.46875 1.875C5.46875 1.61612 5.25888 1.40625 5 1.40625C4.74112 1.40625 4.53125 1.61612 4.53125 1.875V4.53125H1.875C1.61612 4.53125 1.40625 4.74112 1.40625 5C1.40625 5.25888 1.61612 5.46875 1.875 5.46875H4.53125V8.125C4.53125 8.38387 4.74112 8.59375 5 8.59375C5.25888 8.59375 5.46875 8.38387 5.46875 8.125V5.46875H8.125C8.38387 5.46875 8.59375 5.25888 8.59375 5C8.59375 4.74112 8.38387 4.53125 8.125 4.53125H5.46875V1.875Z" fill="#858699"/>
</svg>
