<svg width="16" height="17" viewBox="0 0 16 17" fill="none" xmlns="http://www.w3.org/2000/svg">
<g clip-path="url(#clip0_2011_255)">
<path d="M5.99999 7.16667C7.84094 7.16667 9.33332 5.67428 9.33332 3.83333C9.33332 1.99238 7.84094 0.5 5.99999 0.5C4.15904 0.5 2.66666 1.99238 2.66666 3.83333C2.66666 5.67428 4.15904 7.16667 5.99999 7.16667Z" fill="#858699"/>
<path d="M7.68933 14.3667C7.342 13.7653 7.41133 13.0247 7.82467 12.5C7.41133 11.9753 7.342 11.2353 7.68933 10.6333L8.22867 9.7C8.52533 9.186 9.07867 8.86667 9.67267 8.86667C9.754 8.86667 9.834 8.87267 9.91333 8.884C9.93533 8.82933 9.96333 8.778 9.99067 8.726C9.63067 8.584 9.242 8.5 8.83333 8.5H3.16667C1.42067 8.5 0 9.92067 0 11.6667V14C0 14.276 0.224 14.5 0.5 14.5H7.766L7.68933 14.3667Z" fill="#858699"/>
<path d="M14.4687 12.8127C14.482 12.7093 14.5 12.6067 14.5 12.5C14.5 12.3927 14.4813 12.2907 14.4687 12.1873L15.0693 11.7327C15.2033 11.6313 15.2407 11.446 15.1567 11.3L14.6173 10.3667C14.5333 10.2213 14.354 10.1607 14.1993 10.226L13.508 10.5173C13.3393 10.3887 13.16 10.2753 12.962 10.1927L12.87 9.45867C12.8487 9.292 12.7073 9.16667 12.5393 9.16667H11.4613C11.2933 9.16667 11.1513 9.292 11.1307 9.45867L11.0387 10.1927C10.8407 10.2753 10.6607 10.3893 10.4927 10.5173L9.80135 10.226C9.64668 10.1607 9.46735 10.2207 9.38335 10.3667L8.84401 11.3C8.76001 11.4453 8.79735 11.6307 8.93135 11.7327L9.53201 12.1873C9.51868 12.2907 9.50068 12.3933 9.50068 12.5C9.50068 12.6073 9.51935 12.7093 9.53201 12.8127L8.93135 13.2673C8.79735 13.3687 8.76001 13.554 8.84401 13.7L9.38335 14.634C9.46735 14.7793 9.64668 14.84 9.80135 14.7747L10.4927 14.4827C10.6613 14.6113 10.8407 14.7247 11.0387 14.8073L11.1307 15.5413C11.1513 15.708 11.2927 15.8333 11.4607 15.8333H12.5387C12.7067 15.8333 12.8487 15.708 12.8693 15.5413L12.9613 14.8073C13.1593 14.7247 13.3393 14.6107 13.5073 14.4827L14.1987 14.774C14.3533 14.8393 14.5327 14.7793 14.6167 14.6333L15.156 13.6993C15.24 13.554 15.2027 13.3687 15.0687 13.2667L14.4687 12.8127ZM12 13.8333C11.2633 13.8333 10.6667 13.2367 10.6667 12.5C10.6667 11.7633 11.2633 11.1667 12 11.1667C12.7367 11.1667 13.3333 11.7633 13.3333 12.5C13.3333 13.2367 12.7367 13.8333 12 13.8333Z" fill="#858699"/>
</g>
<defs>
<clipPath id="clip0_2011_255">
<rect width="16" height="16" fill="white" transform="translate(0 0.5)"/>
</clipPath>
</defs>
</svg>
