<svg width="8" height="15" viewBox="0 0 8 15" fill="none" xmlns="http://www.w3.org/2000/svg">
<path d="M7.7959 9.6476C7.7959 11.1563 6.7901 12.2165 5.526 12.6379V13.5C5.526 14.0523 5.07828 14.5 4.526 14.5H4.18813C3.63585 14.5 3.18813 14.0523 3.18813 13.5V12.6922C2.29104 12.4204 1.44833 11.8087 0.795898 10.7893L2.33182 9.36214C2.84833 10.2049 3.50075 10.6806 4.18036 10.6806C4.91434 10.6806 5.41726 10.3408 5.41726 9.6204C5.41726 8.15243 1.12211 8.9 1.12211 5.43398C1.12211 3.95243 2.03279 2.91942 3.18813 2.48447V1.5C3.18813 0.94772 3.63585 0.5 4.18813 0.5H4.526C5.07828 0.5 5.526 0.94772 5.526 1.5V2.4301C6.3551 2.70194 7.1299 3.31359 7.7415 4.31942L6.2056 5.7466C5.82502 4.90388 5.14541 4.40097 4.53376 4.40097C3.89493 4.40097 3.40561 4.72718 3.40561 5.42039C3.40561 6.86117 7.7959 6.24951 7.7959 9.6476Z" fill="#858699"/>
</svg>
