<svg width="16" height="17" viewBox="0 0 16 17" fill="none" xmlns="http://www.w3.org/2000/svg">
<g clip-path="url(#clip0_2011_228)">
<path d="M6.74642 13.4347H1.68683C0.942298 13.4347 0.336548 12.7713 0.336548 11.9559V9.67228C0.336548 8.09688 1.56417 6.81522 3.07311 6.81522H5.95817C5.2397 7.59834 4.80049 8.64162 4.80049 9.78569C4.80049 10.0491 4.82389 10.3108 4.87033 10.568L3.91836 11.3318C3.43455 11.72 3.35674 12.4295 3.74492 12.9133C3.95958 13.1809 4.27949 13.3343 4.62264 13.3343C4.87752 13.3343 5.12742 13.2464 5.32642 13.0868L5.86617 12.6537C6.12495 12.954 6.42152 13.2162 6.74639 13.4347L6.74642 13.4347ZM5.43386 6.55803C6.2288 6.55803 6.92411 6.15328 7.39167 5.41834C7.76611 4.82978 7.98086 4.05659 7.98086 3.29703C7.98086 1.89259 6.8383 0.75 5.43383 0.75C4.02936 0.75 2.8868 1.89259 2.8868 3.29703C2.8868 4.02684 3.09967 4.80797 3.4562 5.38653C3.92849 6.15294 4.61233 6.55803 5.43383 6.55803H5.43386ZM11.196 13.4693L10.9028 13.0114C10.3938 13.2814 9.81383 13.4346 9.19861 13.4346C7.83483 13.4346 6.64367 12.6821 6.01777 11.5705L4.85711 12.5017C4.78789 12.5573 4.70502 12.5843 4.62267 12.5843C4.51283 12.5843 4.40402 12.5363 4.32995 12.4439C4.20036 12.2824 4.22624 12.0464 4.38777 11.9167L5.71061 10.8554C5.60664 10.5169 5.55052 10.1578 5.55052 9.78563C5.55052 7.77406 7.18705 6.13753 9.19861 6.13753C10.6061 6.13753 11.8298 6.93841 12.4382 8.10819L12.8866 7.76481L12.6975 7.73259C12.4934 7.69784 12.356 7.50413 12.3908 7.29997C12.4256 7.09575 12.6195 6.95837 12.8235 6.99325L13.8377 7.16597C14.0419 7.20072 14.1792 7.39441 14.1445 7.59856L13.9717 8.61372C13.9406 8.79659 13.7819 8.92587 13.6025 8.92587C13.5816 8.92587 13.5604 8.92412 13.5391 8.9205C13.335 8.88575 13.1976 8.69206 13.2324 8.48791L13.2408 8.43831L12.7219 8.83566C12.8037 9.13869 12.8477 9.45709 12.8477 9.78563C12.8477 10.3922 12.6987 10.9645 12.4358 11.4683L12.8886 11.7767L11.196 13.4692L11.196 13.4693ZM8.27298 8.79956C8.41533 8.68537 8.61917 8.69019 8.75599 8.81106L10.0394 9.94519L11.8312 8.57303C11.3713 7.57897 10.3642 6.88756 9.19858 6.88756C7.60055 6.88756 6.30049 8.18766 6.30049 9.78566C6.30049 9.975 6.31892 10.1601 6.35377 10.3394L8.27298 8.79956ZM9.19861 12.6847C10.7971 12.6847 12.0976 11.3842 12.0976 9.78566C12.0976 9.63412 12.0859 9.48528 12.0633 9.33997L10.2504 10.7282C10.108 10.8372 9.90845 10.8302 9.77411 10.7115L8.49605 9.58219L6.61261 11.0933C7.09127 12.0367 8.07067 12.6847 9.19864 12.6847H9.19861ZM15.2933 14.0904L13.4645 12.2615L11.6745 14.0515L13.5034 15.8804C13.7417 16.1188 14.0596 16.25 14.3984 16.25C14.7371 16.25 15.055 16.1187 15.2934 15.8804C15.7868 15.3869 15.7868 14.5839 15.2934 14.0904L15.2933 14.0904Z" fill="#858699"/>
</g>
<defs>
<clipPath id="clip0_2011_228">
<rect width="16" height="16" fill="white" transform="translate(0 0.5)"/>
</clipPath>
</defs>
</svg>
